<?xml version="1.0" encoding="UTF-8"?>
<svg id="Layer_1" data-name="Layer 1" xmlns="http://www.w3.org/2000/svg" viewBox="20 20 871.42 768.35">
  <defs>
    <style>
      .cls-1 {
        fill: #d3ac46;
      }

      .cls-2 {
        fill: #042b53;
      }
    </style>
  </defs>
  <path class="cls-2" d="M532.92,470.63c-2.35-.54-14.33,1.19-14.33-1.51v-191.35h80.94v142.89h82.43c7.01,0,23.03-5.22,29.83-8.14,62.59-26.82,62.62-110.33,1.31-138.92-7.46-3.48-23.2-8.82-31.15-8.82h-196.34c6.38-8.38,13.43-16.28,20.01-24.5,4.03-5.03,7.86-9.96,11.94-14.95,3.61-4.41,25.42-32.62,27.71-33.29l144.72-.25c71.48,4.8,138.13,50.38,151.04,123.74,14.52,82.5-39.34,152.11-117.4,172.79-26.79,7.1-34.4,1.58-59.96-2.42"/>
  <path class="cls-2" d="M528.58,191.84l-208.49,260.7-126.24-150.78v177.86l-85.93,17.99V191.84h87.43c44.17,48.56,86,99.2,128.86,148.91.77.91,1.75,2,3.04,2,1.67,0,19.69-18.6,22.51-21.49,41.63-42.62,81.92-86.62,123.38-129.42h55.46Z"/>
  <path class="cls-2" d="M423.66,584.53v108.91h-48.46c-4.56,0-13.6-5.99-14.99-5.99-.91,0-6.3,3.53-8.69,4.29-8.12,2.58-30.47,2.82-38.32-.25-2.24-.88-5.22-3.97-6.94-4.01-1.49-.04-6.91,3.64-9.52,4.44-13.03,3.99-73.7,2.49-90.44,1.57-8.97-.49-20.87-4.51-28.09-4.7-5.8-.16-19.1,4.17-26.83,4.65-9.82.62-28.97,1.14-37.75-2.2-2.3-.87-5.24-3.82-7.21-3.75-1.8.06-10.25,5.96-14.98,5.96H0v-21.98h44.96c-5.6-14.88-18.83-24.02-33.85-28.1-.64-1,3.39-20.77,4.45-20.92,24.64,4.85,44.15,24.48,50.33,48.58,5.59.67,31.03,2.62,31.03-6.05v-35.47h18.98v33.47c0,2.61,4.87,8.49,7.49,8.49h25.48c-8.75-16.99-2.66-36.15,15.71-42.74,28.54-10.24,56.91,13.57,42.24,42.74h81.44c1.41,0,7.49-4.56,7.49-5.5v-34.97c0-.11,1.39-1.5,1.5-1.5h17.49v32.47c0,.91,2.09,6.12,3.02,6.97,4.56,4.16,32.95,4.63,32.95-3.97v-35.47h18.98v34.47c0,2.48,5.45,7.49,7.49,7.49h25.98c.11,0,1.5-1.39,1.5-1.5v-85.43h18.98ZM173.59,646.71c-17.88,3.71-4.99,30.27,11.01,19.99,13.62-8.75,3.8-23.07-11.01-19.99Z"/>
  <path class="cls-1" d="M424.66,466.12v-125.9l52.46-63.45h27.98c.11,0,1.5,1.39,1.5,1.5v189.85"/>
  <path class="cls-2" d="M345.72,65.94l42.97,20.98v55.96c9.42-.73,2.71-14.29,5.49-19.99.69-1.41,11.28-8,13.01-7.94l42.45,24.93v14.99c-5.88-.98-3.56-2.86-4.16-7.84l-34.8-17.14c-.24,2.92.31,5,2.63,6.85,4.94,3.94,18.44,9.05,25.01,12.96,5.09,3.02,9.72,6.84,15.1,9.37l.19,40.24c-19.87,20.68-39.7,42.34-59.9,63-1.36,1.39-2.86,3.62-5.02,3.47v-121.9c-2.49,1.38-10.59,3.85-12.01,5.48-1,1.14-1.81,7.11-1.97,9.03-.54,6.44.03,14.24-.06,20.93-.45,33.91.61,67.85-.16,101.75l-27.77,28.68c-1.65-1.04-1-3.79-1.02-5.48-.84-79.4.02-158.93.02-238.32Z"/>
  <path class="cls-1" d="M517.1,481.6c94.31,4.87,192.22,14.94,283.48,39.26,16.78,4.47,37.94,10.25,53.55,17.43,1.42.65.83.29,2.18,2.26-3.22-.82-6.24-1.8-6.74-1.92-13-3.3-29.43-5.31-43-7.77-226.63-41-477.67-43.14-705.83.02-15.4,2.91-30.2,7.1-45.77,8.67,4.64-3,4.48-2.54,7.02-3.46,8.41-3.04,16.78-7.45,25.43-10.54,126.42-45.21,265.86-47.54,398.76-45.88"/>
  <path class="cls-1" d="M345.72,60.95v5c0,79.4-.85,158.92-.02,238.32.02,1.69-.64,4.45,1.02,5.48-1.13,1.45-2.83,1.1-4.43,1.02-9.86-.46-21.35-5.56-31.49-6.07l.95-74.89c.11,2.74-1.03,8.55,3.05,5.55,2.05-1.5,2.09-8.77-3.05-6.55-.1-3.65.02-7.34,0-10.99,4.85.56,4.15-3.23,3.99-6.99l-3.99,1c-.03-7.31.02-14.67,0-21.98,6.2.26,7.5-10.1,0-6.99,0-2.99,0-6,0-8.99,4.22-.3,5.07-2.51,5.03-6.48-.03-3.31-3.87-.4-5.03-.51,0-2.99-.01-6,0-8.99,5.75-.56,5.31-4.15,4.99-8.99l-4.99,1c.02-3.32-.03-6.67,0-9.99,6.52-.6,4.98-5.38,5-10.48l-4,.49c.03-2.99-.04-6,0-8.99,5.24-1.98,6.42-12.31-1-8.99-.03-1.99-.03-4,0-6,3-1.82,6.68-5.15,4.51-9.01-1.1-1.96-2.54.79-3.51,1.01.17-6.96-.3-14.03,0-20.98,10.33-3.67,22.65-13.49,32.97-15.99ZM337.73,84.93c-5.73-.39-5.24,4.81-4.99,8.98,5.67-.96,5.44-3.92,4.99-8.98ZM326.73,90.93c-5.18-.42-5.38,4-4.99,7.99,6.37.17,5.12-2.8,4.99-7.99ZM337.73,99.92c-6.27,1-5.18,4.71-4.98,9.99,6.43-1.87,5.13-3.86,4.98-9.99ZM326.73,105.92c-5.64.34-5.35,4.37-4.99,8.98,5.64-.34,5.35-4.37,4.99-8.98ZM337.73,117.91c-7.04,1.08-6.38,3.59-5.98,9.98,6.98-.44,6.38-4.14,5.98-9.98ZM326.73,122.9c-6.78,1.02-4.92,5.57-4.99,10.98,6.65.33,4.88-6.49,4.99-10.98ZM337.73,137.89c-5.64.34-5.35,4.37-4.99,8.98,5.64-.34,5.35-4.37,4.99-8.98ZM326.73,143.88c-5.73-.39-5.24,4.81-4.99,8.98,5.64-.34,5.35-4.38,4.99-8.98ZM337.73,154.88c-5.64.34-5.35,4.37-4.99,8.98,5.64-.34,5.35-4.37,4.99-8.98ZM326.73,160.87c-4.53-.45-5.48,3.17-4.99,6.99,5.62.83,5.28-2.44,4.99-6.99ZM337.73,171.86c-5.18-.42-5.38,4-4.99,7.98,5.02-.29,5.54-3.61,4.99-7.98ZM326.73,176.86c-5.02.29-5.54,3.61-4.99,7.98,4.74.68,5.24-4.46,4.99-7.98ZM337.73,187.85c-5.71-.07-5.39,1.97-4.99,6.99,5.62.81,5.28-2.44,4.99-6.99ZM326.73,192.85c-5.62-.83-5.28,2.44-4.99,6.99,4.53.45,5.48-3.17,4.99-6.99ZM337.73,203.84c-5.62-.82-5.28,2.44-4.99,6.99,4.33-.23,5.66-2.93,4.99-6.99ZM326.73,206.83c-5.02.29-5.54,3.61-4.99,7.98,5.18.42,5.38-4,4.99-7.98ZM332.74,227.81c2.86-.13,5.06-1.53,5.09-4.48.05-6.81-7.27-1.26-5.09,4.48ZM325.73,224.82c-1.92-2.23-6.19,7.83,0,6v-6ZM337.73,237.81c-4.95-.71-5.43,1.6-4.99,5.99,3.84.52,5.53-2.57,4.99-5.99ZM325.74,258.78h-2.99s0,7.99,0,7.99c4.28.07,2.85-5.04,2.99-7.99ZM315.74,262.79c-4.56-1.61-4.93,7.02-3.99,7.99,3.07,3.12,5.26-6.19,3.99-7.99ZM336.73,262.79c-2.37-2.43-5.62,4.31-3.99,5.99,2.37,2.43,5.62-4.31,3.99-5.99ZM336.58,287.61c5.14-3.05-4.58-16.52-3.84.16,1.17-.16,2.93.38,3.84-.16ZM315.74,283.77c-7.13-.63-4.01,11.18-.47,6.01,1-1.46.34-4.25.47-6.01Z"/>
  <path class="cls-2" d="M789.37,671.46c-4.44-14.51-18.48-24.49-32.86-28.08-.94-1.09,2.22-15.84,2.92-18.34,1.47-5.23,13.47.65,17.32,2.58,17.2,8.63,29.61,25.37,34.21,43.9,7.13-.46,17.62,1.33,23.73-3.19,14.38-10.64,19.06-35.82,42.18-38.75,38.01-4.82,39.86,42.85,28.26,67.73-14.83.49-30.8.74-44.52-5.67-2.84-1.32-9.46-6.84-10.95-6.98-2.16-.21-6.56,4.24-9.13,5.5-1.79.88-8.18,3.29-9.7,3.29h-82.93c-.11,0-1.5-1.39-1.5-1.5v-20.48h42.97ZM862.35,670.42c1.25,1.48,26.17,5.92,28.02,4.61,3.85-10.1.46-28.28-13.74-21.73-3.54,1.63-16.93,13.97-14.28,17.12Z"/>
  <path class="cls-2" d="M303.76,142.88v155.88c-2.36.62-1.69-.6-2.29-1.28-7.17-8.11-14.32-16.27-21.7-24.2v-129.4l-40.66,20.8-2.3.18-.06-5.37,42.37-22.76c3.18-.38,3.97-9.94,1.17-8.83-5.9,6.01-29.31,13.3-33.48,18.48-1.75,2.17-.35,5.79-3.51,7.48-.27-3.35-3.23-12.19-.25-14.74.62-.53,2.79-.65,4.07-1.39,5.39-3.13,36.03-21.76,39.15-21.76,1.53,0,10.28,4.75,10.98,5.93,3.13,5.2-4.42,20.14,6.5,20.98Z"/>
  <path class="cls-2" d="M618.51,629.49v63.95h-78.44c-2.8,0-11.69-3.02-14.53-4.46-18.46-9.37-21.35-30.9-14.99-49.04,5.52-15.72,8.75-4.12,20.02-2.44-1.63,8.35-6.42,15.22-2.5,23.97,2.37,5.29,10.48,9.98,16,9.98h54.46c1.92-4.67.03-8.25-.04-12.45-.14-7.6-.85-18.92,0-26.07.12-1.01.46-3.45,1.55-3.45h18.49Z"/>
  <path class="cls-2" d="M17.49,744.4c1.99.62,16.16,32.82,19,36.98l19.97-36.98h15.49v62.95h-12.99v-39.97c-5.3,4.2-13.92,32.34-18.68,33.78-1.89.57-7.4.7-8.83-.77l-16.46-33v38.47c0,2.51-11.83,1.2-13.99,1.5v-62.95c4.26.81,12.92-1.11,16.49,0Z"/>
  <path class="cls-2" d="M439.65,693.44v-108.91h18.49c.11,0,1.5,1.39,1.5,1.5v105.92c0,.11-1.39,1.5-1.5,1.5h-18.49Z"/>
  <path class="cls-2" d="M713.43,693.44v-108.91h18.49c.11,0,1.5,1.39,1.5,1.5v105.92c0,.11-1.39,1.5-1.5,1.5h-18.49Z"/>
  <path class="cls-2" d="M698.44,629.49v71.44c0,1.57-2.9,10.29-3.82,12.17-5.1,10.45-17.48,15.32-28.5,16.38-1.87-.41-3.22-18.1-4.65-21.05,4.37,1,16.99-3.66,16.99-8.5v-70.44h19.98Z"/>
  <path class="cls-2" d="M654.48,584.53v108.91h-17.49c-.11,0-1.5-1.39-1.5-1.5v-105.92c0-.11,1.39-1.5,1.5-1.5h17.49Z"/>
  <path class="cls-2" d="M172.86,740.4h12.99s0,66.95,0,66.95c-2.01-.35-12.54.46-13,0-.32-.32.24-4.76,0-6-3.72.64-5.63,5.23-9.54,5.94-20.56,3.78-33.11-13.02-28.14-32.13,3.34-12.83,14-18.73,26.95-16.54,5.07.86,6.45,4.15,10.73,5.76v-23.98ZM159.61,769.59c-14.69,1.38-14.64,27.97,1.74,26.83,15.21-1.06,13.25-28.24-1.74-26.83Z"/>
  <path class="cls-2" d="M395.68,807.35l26.02-62.91,16.34-.11,25.59,63.01h-14.99c-.81-2.65-3.42-12.07-5.66-12.83-1.91-.65-22.77-.6-25.86-.23-2.47.29-5.12,10.3-6.46,13.06h-14.99ZM438.65,783.37c-.85-7.93-5.89-15.23-8.01-22.98-1.41-1.05-9.38,20.81-9.98,22.98h17.99Z"/>
  <path class="cls-2" d="M861.31,740.4c2.95.49,13.17-1.1,14.58.95.68.99.82,21.4-.59,24.02l6.68-4.8c7.08-3.64,18.35-3.55,23.82,2.78,1.46,1.69,4.47,7.67,4.47,9.52v34.47h-13.99v-29.48c0-5.62-12.93-9.86-17.84-2.86-3.33,4.75-2.71,11.42-2.89,17.9-.12,4.72-.25,9.38-.25,14.43h-13.99v-66.95Z"/>
  <path class="cls-2" d="M599.52,777.38c.32-7.75-7-8.73-13.25-7.75-9.26,1.45-10.08,9.53-14.7-5.68,8.39-5.79,27.05-8.53,35.45-2.57,12.17,8.64,6.28,33.04,6.49,45.97-2.01-.35-12.54.46-13,0-.49-.49.79-4.26-.49-5-12.18,11.45-35.59,5.29-31.05-14.07,1.39-5.93,9.37-10.92,15.05-10.92h15.49ZM600.52,786.37h-14.49c-4.53,0-7.71,11.44,4,11.08,5.79-.18,10.93-5.19,10.48-11.08Z"/>
  <path class="cls-2" d="M329.74,805.85c-.62,2.01-13.5,2.03-13.99,1.51s1.17-5.02-1.48-3.99c-1.34.52-3.07,2.94-5.29,3.71-13.86,4.79-29.77-5.37-23.72-20.73,1.56-3.95,9.07-8.97,13-8.97h17.49c-1.43-13.24-16.94-7.2-24.97-4-.14-2.83-4.35-7.21-2.83-9.81.55-.94,10.8-4.67,12.55-4.94,9.22-1.43,23.22-.77,27.45,9.04.32.74,1.79,5.86,1.79,6.21v31.97ZM315.75,786.37h-14.49c-4.48,0-6.17,10.71,2.98,11.09,6.56.28,12.62-4.03,11.51-11.09Z"/>
  <path class="cls-2" d="M126.9,807.35h-13.99c-.25,0,.59-4.03-.51-4.01-12.61,9.2-32.74,5.11-30.48-13.51.47-3.91,2.79-7.81,6.31-9.67.88-.46,7.75-2.8,8.2-2.8h16.49c-.32-7.87-6.72-8.76-13.25-7.75-2.64.41-9.4,4.19-10.75,3.33-.91-.58-4.27-7.72-4.06-8.98,8.9-6.11,29.66-9.08,37.59-.64,1.07,1.14,4.45,7.49,4.45,8.54v35.47ZM112.91,786.37c-5.17.07-20.53-2.05-17.81,7.27,2.39,8.19,20.85,2.95,17.81-7.27Z"/>
  <path class="cls-2" d="M240.81,807.35c-2.02-.35-12.55.48-13,0-.57-.6,1.28-4.85-1.47-3.99-1.48.46-3.43,2.55-5.7,3.3-14.21,4.66-29.42-3.54-24.02-20.03,1.63-4.99,9.85-9.26,14.72-9.26h15.49c.18-8.37-7.51-8.93-14.25-7.76-2.45.43-8.17,3.91-9.13,3.69-1.36-.32-5.36-8.67-4.53-9.84,9.62-5.05,27.41-8.51,36.42-1.09,1.45,1.2,5.48,7.03,5.48,8.51v36.47ZM227.82,786.37h-15.49c-2.12,0-6.49,7.6-.24,10.23,7.73,3.26,15.57-2.01,15.73-10.23Z"/>
  <path class="cls-2" d="M781.38,787.37c-.22,4.39,2.63,6.64,6.3,8.18,9.84,4.16,15.06-3.83,17.98-3.08,1.17.3,7.52,6.68,6.69,7.87-10.18,7.6-23,10.47-34.64,4.19-13.99-7.54-14.95-28.75-4.36-39.69,10.05-10.37,33.05-8.84,39.03,5.02.97,2.25,5.25,17.51,1.48,17.51h-32.47ZM781.38,778.37h19.98c-.36-13.05-19.27-12.78-19.98,0Z"/>
  <path class="cls-2" d="M639.49,758.39c.33.33-.25,5.65,0,6.99,6.72-8.63,23.85-10.39,30.4-.93.97,1.4,3.57,7.16,3.57,8.42v34.47h-13.99v-29.48c0-10.08-19.98-7.46-19.98,2v27.48h-13.99v-48.96c2.12.36,13.49-.49,13.99,0Z"/>
  <path class="cls-2" d="M762.39,787.37h-34.97c2.54,8.06,8.17,10.25,16.26,8.76s7.48-8.04,15.69,2.73c-13.68,15.5-43.56,10.77-45.94-11.98-4.01-38.23,53.51-38.53,48.96.49ZM728.42,778.37h19.98c-.15-12.82-19.05-12.44-19.98,0Z"/>
  <path class="cls-2" d="M567.55,744.4c-.2,2.13.88,11.99-1.5,11.99h-17.49v50.96h-13.99v-50.96h-18.98v-11.99h51.96Z"/>
  <path class="cls-1" d="M770.64,500.35c-6.25,1.6-19.66-3.59-26.23-5.24,37.5-15.69,69.07-39.44,92.91-72.45-10.36,29.14-28.4,52.14-53.92,69.49"/>
  <path class="cls-2" d="M217.69,475.47l-12.85,2.14,2.01-138.89c1.64.7,3.81,1.39,3.99,3.49"/>
  <path class="cls-2" d="M687.45,771.88c-.77-2.47-6.6-1.11-7-1.49-.36-.35-.35-9.65,0-10,.41-.41,6.59.42,7,.01.66-.66-2.27-10.95,5.5-16.99,5.17-4.02,13.45-5.17,19.47-2.5s.43,7.61,0,12.49c-7.82-3.63-11.86-2.23-10.98,7,10.02-.36,12.28-.88,11,9.99-2,.14-11-.8-11,1.49v35.47h-13.99v-35.47Z"/>
  <path class="cls-2" d="M356.72,747.4v12.99c2,.34,12.53-.47,12.99,0s-.82,8.18.99,9.99c-2.94.61-12.82-1.51-13.85,1.65-.72,2.19-.38,19.01.6,21.11,2.33,4.99,10.35.42,11.25,1.23.33.3,1.97,8.13,1.96,8.58-.09,3.05-9.9,5.41-12.44,5.41-9.72.02-14.57-6.46-15.48-15.49-.54-5.34,1.18-16.84-.15-20.83-.92-2.77-5.37-1.18-5.86-1.64-.37-.34-.36-9.65,0-10,.39-.39,5.61.4,6.01.01.46-.46-.35-10.98,0-12.99h13.99Z"/>
  <path class="cls-2" d="M839.33,747.4v12.99s13.01.57,13.01.57v9.42c-2.84.54-11.85-1.47-12.87,1.63-.53,1.61-.46,18.82.07,20.63,2.01,6.88,9.21.98,10.82,2.12.79.56,3.17,7.85,2.86,8.93-.64,2.25-9.45,4.3-11.65,4.39-6.86.27-16.23-4.54-16.23-12.23v-25.48c0-.32-5.82.71-6.01-.57s-.32-9.09.01-9.42c.39-.39,5.61.4,6.01.01.46-.46-.35-10.98,0-12.99h13.99Z"/>
  <path class="cls-2" d="M312.75,76.93c.1-2.38-.67-4.45,1.01-6.49,2.71-3.3,24.77-12,25.81-13.65,2.99-4.8-5.95-15.83,5.16-18.56l3.01-38.23,1.98,7.5,1.99,30.76c9.89,4.81,13.78,13.19,20.49,20.7,5.69,6.37,12.78,7.86,10.5,17.97-12.18-4.38-23.44-10.89-35.03-16.59-1.08-.75-1.71.55-1.94.61-10.32,2.5-22.65,12.32-32.97,15.99Z"/>
  <rect class="cls-2" x="470.62" y="740.4" width="13.99" height="66.95"/>
  <path class="cls-2" d="M252.8,758.39c5.99.83,15.69-3.35,14,6,4.16-3.55,9.26-6.4,14.98-6-.55,3.23,2.4,9.46.56,12.06-1.11,1.57-9.58.39-14.42,6.56-1.94,2.47-2.13,5.51-2.13,5.86v24.48h-12.99v-48.96Z"/>
  <path class="cls-2" d="M302.5,592.73c17.03-3.27,18.2,24.66.86,22.7-12.6-1.42-13.2-20.33-.86-22.7Z"/>
  <path class="cls-2" d="M175.62,589.74c16.24-2.64,18.02,21.35,3.62,22.72-15.15,1.44-16.84-20.57-3.62-22.72Z"/>
  <path class="cls-2" d="M34.63,605.17c-8.16,7.78-23.74-1.16-18.03-13.54,7.42-16.06,30.86,1.3,18.03,13.54Z"/>
  <path class="cls-2" d="M359.43,610.25c-.09.22-1.25.29-1.63,1.02-1,1.93-.21,3.5-2.77,5.04-1.91,1.15-8.58,1.76-10.6,1.2-.35-.1-4.38-5.33-4.5-5.71-2.23-7.2,3.24-14.49,10.83-12.9,3.82.8,10.43,7.19,8.67,11.35Z"/>
  <path class="cls-2" d="M549.27,606.73c7.74-1.77,15.49,3.58,12.83,11.83-2.18,6.77-11.81,7.95-16.61,3.51-4.13-3.81-1.76-14.07,3.78-15.34Z"/>
  <path class="cls-2" d="M92.65,705.63c12.09-2.66,17.28,16.12,4.53,18.58-12.94,2.49-15.11-16.25-4.53-18.58Z"/>
  <path class="cls-2" d="M376.24,615.07c-3.55,4.84-13.96,2.68-15.31-3.28-4.69-20.75,27.88-13.89,15.31,3.28Z"/>
  <path class="cls-2" d="M570.26,606.73c14.7-3.36,15.98,14.65,7.34,17.32-14.86,4.59-17.1-15.09-7.34-17.32Z"/>
  <path class="cls-2" d="M113.63,705.63c13.03-2.89,15.88,17.86,2.65,18.76-11.18.76-13.15-16.42-2.65-18.76Z"/>
  <path class="cls-2" d="M312.75,129.89l4-.49c-.02,5.1,1.52,9.88-5,10.48.03-3.5.98-7.76,1-9.99Z"/>
  <path class="cls-2" d="M271.78,173.86c.53,5.28.33,9.11-5.98,8.98-.79-4.85.75-8.41,5.98-8.98Z"/>
  <path class="cls-2" d="M259.79,163.87c.79,4.85-.75,8.41-5.98,8.98-.53-5.28-.33-9.11,5.98-8.98Z"/>
  <path class="cls-2" d="M247.8,169.86c.53,5.28.33,9.11-5.98,8.98-.79-4.85.75-8.41,5.98-8.98Z"/>
  <path class="cls-2" d="M247.8,204.84c.79,4.85-.75,8.41-5.98,8.98-.53-5.28-.33-9.11,5.98-8.98Z"/>
  <path class="cls-2" d="M247.8,186.85c.95,5.02-1.04,7.94-5.98,8.98-.53-5.28-.33-9.11,5.98-8.98Z"/>
  <path class="cls-2" d="M259.79,199.84c.56,4.85-.23,8.67-5.99,7.99-.7-5.04.39-8.11,5.99-7.99Z"/>
  <path class="cls-2" d="M312.75,120.9c.02-1.47-.95-6.04-1-8.99,7.42-3.32,6.24,7.01,1,8.99Z"/>
  <path class="cls-2" d="M247.8,221.82c.71,5.03-.4,8.1-5.98,7.98-.71-5.03.4-8.1,5.98-7.98Z"/>
  <path class="cls-2" d="M311.75,149.88l4.99-1c.32,4.84.76,8.43-4.99,8.99.01-2.66-.02-5.33,0-7.99Z"/>
  <path class="cls-2" d="M271.78,157.87c.39,6.06.96,8.27-5.98,7.98-.83-4.45,1.44-7.52,5.98-7.98Z"/>
  <path class="cls-2" d="M258.79,180.85c.45,5.06.69,8.02-4.99,8.98.12-5.29-1.9-9.26,4.99-8.98Z"/>
  <path class="cls-2" d="M253.8,241.81c-1.69-1.68.77-9.58,5.03-6.56,4.02,2.85-2.88,8.7-5.03,6.56Z"/>
  <path class="cls-2" d="M258.79,216.83c.13,5.19,1.38,8.16-4.99,7.98-.55-4.37-.03-7.69,4.99-7.98Z"/>
  <path class="cls-2" d="M271.78,193.85c.55,4.37.03,7.69-4.99,7.98-.13-5.19-1.38-8.16,4.99-7.98Z"/>
  <path class="cls-2" d="M271.78,210.83c.13,5.19,1.38,8.16-4.99,7.98-.55-4.37-.03-7.69,4.99-7.98Z"/>
  <path class="cls-2" d="M311.75,105.91c.05-2.98.96-6.37,1-7.99.97-.23,2.41-2.97,3.51-1.01,2.17,3.86-1.51,7.18-4.51,9.01Z"/>
  <path class="cls-2" d="M271.78,245.8c.13,5.19,1.38,8.16-4.99,7.98-.55-4.37-.03-7.69,4.99-7.98Z"/>
  <path class="cls-2" d="M311.75,166.86c1.16.12,5-2.8,5.03.51.04,3.97-.82,6.18-5.03,6.48,0-2.33,0-4.67,0-6.99Z"/>
  <path class="cls-2" d="M311.75,189.84c0-2.33,0-4.67,0-6.99,7.5-3.11,6.2,7.25,0,6.99Z"/>
  <path class="cls-2" d="M271.78,228.82c.4,5.03.72,7.05-4.99,6.99-.4-5.03-.72-7.05,4.99-6.99Z"/>
  <path class="cls-2" d="M311.75,228.81c5.15-2.21,5.1,5.05,3.05,6.55-4.08,3-2.94-2.81-3.05-5.55-.01-.33,0-.67,0-1Z"/>
  <path class="cls-2" d="M311.75,211.83l3.99-1c.16,3.76.86,7.55-3.99,6.99-.01-2,0-4,0-6Z"/>
  <path class="cls-2" d="M337.73,117.91c.39,5.84,1,9.54-5.98,9.98-.4-6.39-1.06-8.91,5.98-9.98Z"/>
  <path class="cls-2" d="M326.73,122.9c-.11,4.49,1.66,11.31-4.99,10.98.06-5.41-1.79-9.96,4.99-10.98Z"/>
  <path class="cls-2" d="M337.73,99.92c.15,6.12,1.45,8.12-4.98,9.99-.2-5.28-1.29-8.99,4.98-9.99Z"/>
  <path class="cls-2" d="M326.73,143.88c.37,4.61.65,8.64-4.99,8.98-.25-4.18-.74-9.37,4.99-8.98Z"/>
  <path class="cls-2" d="M337.73,84.93c.45,5.06.69,8.02-4.99,8.98-.25-4.18-.74-9.37,4.99-8.98Z"/>
  <path class="cls-2" d="M326.73,105.92c.37,4.61.65,8.64-4.99,8.98-.37-4.61-.65-8.64,4.99-8.98Z"/>
  <path class="cls-2" d="M337.73,137.89c.37,4.61.65,8.64-4.99,8.98-.37-4.61-.65-8.64,4.99-8.98Z"/>
  <path class="cls-2" d="M337.73,154.88c.37,4.61.65,8.64-4.99,8.98-.37-4.61-.65-8.64,4.99-8.98Z"/>
  <path class="cls-2" d="M336.58,287.61c-.91.54-2.68,0-3.84.16-.74-16.67,8.98-3.21,3.84-.16Z"/>
  <path class="cls-2" d="M326.73,90.93c.13,5.19,1.38,8.16-4.99,7.99-.4-3.99-.2-8.4,4.99-7.99Z"/>
  <path class="cls-2" d="M326.73,206.83c.4,3.98.2,8.4-4.99,7.98-.55-4.37-.03-7.69,4.99-7.98Z"/>
  <path class="cls-2" d="M337.73,171.86c.55,4.37.03,7.69-4.99,7.98-.4-3.98-.2-8.4,4.99-7.98Z"/>
  <path class="cls-2" d="M326.73,176.86c.26,3.53-.24,8.66-4.99,7.98-.55-4.37-.03-7.69,4.99-7.98Z"/>
  <path class="cls-2" d="M337.73,187.85c.3,4.55.64,7.8-4.99,6.99-.4-5.03-.72-7.06,4.99-6.99Z"/>
  <path class="cls-2" d="M332.74,227.81c-2.19-5.73,5.14-11.28,5.09-4.48-.02,2.95-2.23,4.34-5.09,4.48Z"/>
  <path class="cls-2" d="M326.73,160.87c.3,4.54.63,7.81-4.99,6.99-.49-3.81.46-7.44,4.99-6.99Z"/>
  <path class="cls-2" d="M326.73,192.85c.49,3.81-.46,7.44-4.99,6.99-.3-4.54-.63-7.81,4.99-6.99Z"/>
  <path class="cls-2" d="M337.73,203.84c.68,4.05-.65,6.76-4.99,6.99-.3-4.54-.63-7.81,4.99-6.99Z"/>
  <path class="cls-2" d="M315.74,262.79c1.28,1.8-.92,11.1-3.99,7.99-.95-.96-.57-9.6,3.99-7.99Z"/>
  <path class="cls-2" d="M337.73,237.81c.54,3.42-1.15,6.5-4.99,5.99-.45-4.38.03-6.69,4.99-5.99Z"/>
  <path class="cls-2" d="M315.74,283.77c-.14,1.76.52,4.56-.47,6.01-3.53,5.17-6.66-6.64.47-6.01Z"/>
  <path class="cls-2" d="M325.74,258.78c-.13,2.95,1.29,8.07-2.99,7.99v-7.99s2.99,0,2.99,0Z"/>
  <path class="cls-2" d="M336.73,262.79c1.63,1.67-1.62,8.41-3.99,5.99-1.63-1.67,1.62-8.41,3.99-5.99Z"/>
  <path class="cls-2" d="M325.73,224.82v6c-6.19,1.84-1.92-8.22,0-6Z"/>
</svg>